<?xml version="1.0" encoding="UTF-8"?>
<svg xmlns="http://www.w3.org/2000/svg" xmlns:xlink="http://www.w3.org/1999/xlink" viewBox="0 0 1024 1024">
  <defs>
    <linearGradient id="linear-gradient" x1="21.54" y1="512" x2="1002.46" y2="512" gradientUnits="userSpaceOnUse">
      <stop offset="0" stop-color="#c978b2"/>
      <stop offset=".5" stop-color="#9056a3"/>
      <stop offset="1" stop-color="#3a419a"/>
    </linearGradient>
    <linearGradient id="linear-gradient-2" x1="-35.04" y1="1014.7" x2="924.61" y2="618.51" xlink:href="#linear-gradient"/>
    <linearGradient id="linear-gradient-3" x1="692.04" y1="-78.75" x2="-82.72" y2="751.77" xlink:href="#linear-gradient"/>
    <linearGradient id="linear-gradient-4" x1="950.18" y1="206.42" x2="950.18" y2="397.89" xlink:href="#linear-gradient"/>
    <linearGradient id="linear-gradient-5" x1="486.79" y1="373.08" x2="958.54" y2="605.66" xlink:href="#linear-gradient"/>
    <linearGradient id="linear-gradient-6" x1="720.04" y1="206.42" x2="720.04" y2="397.89" xlink:href="#linear-gradient"/>
    <linearGradient id="linear-gradient-7" x1="683" y1="792.98" x2="756.37" y2="455.49" gradientUnits="userSpaceOnUse">
      <stop offset="0" stop-color="#010101" stop-opacity="0"/>
      <stop offset="1" stop-color="#010101"/>
    </linearGradient>
    <linearGradient id="linear-gradient-8" x1="182.28" y1="312.96" x2="775.09" y2="-89.09" gradientUnits="userSpaceOnUse">
      <stop offset="0" stop-color="#e3f3f7" stop-opacity="0"/>
      <stop offset="1" stop-color="#fff"/>
    </linearGradient>
    <linearGradient id="linear-gradient-9" x1="498.8" y1="570.63" x2="1167.91" y2="149.99" xlink:href="#linear-gradient-8"/>
    <linearGradient id="linear-gradient-10" x1="140.24" y1="643.11" x2="142.19" y2="995.28" xlink:href="#linear-gradient-7"/>
  </defs>
  <g style="isolation: isolate;">
    <g id="Layer_1" data-name="Layer 1">
      <g>
        <path d="M1002.14,493.94c-.18-4.66-.42-9.31-.71-13.93v-.18c-3.32-51.03-14.42-99.9-32.16-145.5v-.04c-4.51-11.67-9.49-23.1-14.88-34.31-14.56,2.22-28.14,7.62-39.92,15.45-5.61,3.67-10.83,7.93-15.55,12.66-11.64-6.88-24.02-12.66-36.96-17.21-22.11-7.83-45.88-12.06-70.67-12.06-6.31,0-12.59.28-18.76.85-.71.04-1.45.11-2.15.18-11.32-15.83-24.05-30.61-38.02-44.08-33.57,13.26-58.29,44.15-62.67,81.28-36.78,25.71-65.03,62.77-79.7,106.11-.95,5.4-2.5,10.51-4.55,15.31-11,26.06-36.78,44.33-66.86,44.33-2.05,0-4.06-.07-6.03-.28,2.43,36.42,13.12,70.55,30.15,100.63-30.49-9.94-62.96-15.29-96.72-15.29-80.76,0-154.35,30.68-209.76,81-34.45-51.56-54.52-113.52-54.52-180.13,0-179.29,145.36-324.61,324.65-324.61,27.22,0,53.64,3.35,78.89,9.7,3.74.88,7.48,1.9,11.18,2.96,4.27.81,8.68,1.23,13.19,1.23,40.1,0,72.61-32.48,72.61-72.58,0-32.3-21.09-59.67-50.25-69.12h-.07c-3.31-.81-6.6-1.62-9.91-2.4-.07-.07-.14-.07-.25-.07-35.3-8.04-72.01-12.31-109.74-12.31C241.13,21.54,21.54,241.13,21.54,512c0,122.72,45.1,235,119.65,321.02,89.93,103.78,222.7,169.45,370.81,169.45,88.69,0,171.92-23.56,243.71-64.75,137.36-78.8,232.9-222.22,245.31-388.78.32-2.47.55-4.92.55-7.28.6-9.84.88-19.71.88-29.66,0-6.03-.11-12.06-.32-18.06Z" style="fill: url(#linear-gradient);"/>
        <path d="M1001.58,541.66c-10.12,169.66-106.5,316.11-245.87,396.06-71.8,41.19-155.02,64.75-243.71,64.75-148.11,0-280.88-65.66-370.81-169.45,14.04-64.43,47.96-121.38,95.04-164.16,55.4-50.32,129-81,209.76-81,33.78,0,66.26,5.36,96.77,15.3,1.82,0,12.73,20.11,14.55,22.61,5.47,7.53,11.39,14.74,17.7,21.57,12.63,13.68,26.87,25.87,42.33,36.24,71.95,48.26,172.18,52.59,252.65,24.91,27.76-9.55,53.71-28.5,74.04-49.54,30.87-31.93,51.26-73.32,57.55-117.29Z" style="fill: url(#linear-gradient-2);"/>
        <path d="M682.22,105.43c0,40.1-32.52,72.58-72.61,72.58-4.51,0-8.92-.42-13.19-1.23-3.7-1.06-7.44-2.08-11.18-2.96-25.25-6.35-51.66-9.7-78.89-9.7-179.29,0-324.65,145.33-324.65,324.61,0,66.62,20.07,128.57,54.52,180.13-47.08,42.78-81,99.73-95.04,164.16-74.55-86.01-119.65-198.29-119.65-321.02C21.54,241.13,241.13,21.54,512,21.54c37.73,0,74.44,4.27,109.74,12.31.11,0,.18,0,.25.07,3.31.78,6.6,1.59,9.91,2.4h.07c29.16,9.45,50.25,36.82,50.25,69.12Z" style="fill: url(#linear-gradient-3);"/>
        <path d="M1001.44,479.84c-4.69-31.42-16.22-60.59-33.08-85.94,0-.04-.04-.07-.04-.11-3.95-5.96-8.22-11.67-12.73-17.17-15.83-19.32-35.02-35.79-56.67-48.52,4.73-4.73,9.94-8.99,15.55-12.66,11.78-7.83,25.36-13.22,39.92-15.45,5.4,11.21,10.37,22.64,14.88,34.31v.04c17.74,45.6,28.85,94.47,32.16,145.5Z" style="fill: url(#linear-gradient-4);"/>
        <path d="M1002.46,512c0,9.95-.28,19.82-.88,29.66,0,13.57-5.92,29.36-10.48,41.97-4.92,13.58-11.23,26.64-18.81,38.94-15,24.35-34.93,45.6-58.25,62.14-62.52,44.33-149.6,48.09-222.21,31.73-61.31-13.81-114.76-55.31-146.7-109.12-.82-1.38-1.62-2.76-2.41-4.15-17.03-30.08-27.72-64.22-30.15-100.65,1.98.21,3.99.28,6.03.28,30.08,0,55.86-18.27,66.86-44.33,2.04-4.8,3.6-9.91,4.55-15.31,14.67-43.34,42.92-80.4,79.7-106.11,29.06-20.31,63.48-33.57,100.68-37.2.71-.07,1.45-.14,2.15-.18,6.17-.56,12.45-.85,18.76-.85,24.79,0,48.56,4.23,70.67,12.06,12.94,4.55,25.32,10.33,36.96,17.21,21.65,12.73,40.84,29.2,56.67,48.52,4.51,5.5,8.78,11.21,12.77,17.28,16.86,25.36,28.39,54.52,33.08,85.94v.18c.28,4.62.53,9.28.7,13.93.21,6,.32,12.03.32,18.06Z" style="fill: url(#linear-gradient-5);"/>
        <path d="M770.38,299.85c-37.2,3.63-71.62,16.89-100.68,37.2,4.37-37.13,29.09-68.03,62.67-81.28,13.96,13.47,26.7,28.25,38.02,44.08Z" style="fill: url(#linear-gradient-6);"/>
        <path d="M944.03,658.95c-20.34,21.03-46.29,39.99-74.04,49.54-80.47,27.68-180.7,23.35-252.65-24.91-15.46-10.37-29.7-22.56-42.33-36.24-6.31-6.84-12.23-14.05-17.7-21.57-1.82-2.5-12.73-22.61-14.55-22.61-26.99-8.8-55.53-13.99-85.14-15.08-8.75,94.94,82.38,179.15,173.53,216.29,61.75,24.7,65.87,115.27,32.93,172.9-.22.44-.47.87-.69,1.31,32.38-10.5,63.3-24.21,92.33-40.87,139.37-79.94,235.74-226.4,245.87-396.06-6.3,43.98-26.68,85.37-57.56,117.29Z" style="fill: url(#linear-gradient-7); mix-blend-mode: overlay;"/>
        <path d="M585.25,173.81c3.74.88,7.48,1.9,11.18,2.96,4.27.81,8.68,1.23,13.19,1.23,40.1,0,72.61-32.48,72.61-72.58,0-32.3-21.09-59.67-50.25-69.12h-.07c-3.31-.81-6.6-1.62-9.91-2.4-.07-.07-.14-.07-.25-.07-35.3-8.04-72.01-12.31-109.74-12.31-230.61,0-424.03,159.19-476.43,373.66,4.9-6.42,9.91-12.77,15.11-18.97,103.89-122.78,260.75-214.26,419.03-210,12.04-1.35,24.25-2.12,36.65-2.12,27.22,0,53.64,3.35,78.89,9.7Z" style="fill: url(#linear-gradient-8); mix-blend-mode: overlay;"/>
        <path d="M955.6,376.62c-15.84-19.33-35.02-35.79-56.67-48.52-11.64-6.88-24.02-12.66-36.96-17.21-22.11-7.83-45.88-12.06-70.67-12.06-6.31,0-12.59.28-18.76.85-.71.04-1.45.11-2.15.18-37.2,3.63-71.62,16.89-100.68,37.2-36.78,25.71-65.03,62.77-79.7,106.11-.95,5.4-2.5,10.51-4.55,15.31-10.97,25.97-36.61,44.19-66.56,44.32,39.19,8.46,83.01-2.21,99.89-35.99,53.52-119.39,185.25-135.85,296.41-98.8,20.6,7.59,39.76,18.35,56.75,31.62-1.19-1.91-2.34-3.85-3.59-5.72-3.98-6.07-8.25-11.78-12.77-17.28Z" style="fill: url(#linear-gradient-9); mix-blend-mode: overlay;"/>
        <path d="M53.14,685.55c20.6,54.44,50.61,104.27,88.05,147.47,13.18-60.49,43.89-114.39,86.57-156.16-56.91,12.3-115.93,14.62-174.61,8.69Z" style="fill: url(#linear-gradient-10); mix-blend-mode: overlay;"/>
      </g>
    </g>
  </g>
</svg>