<?xml version="1.0" encoding="UTF-8"?>
<svg xmlns="http://www.w3.org/2000/svg" viewBox="0 0 1000 200">
  <g style="isolation: isolate;">
    <g id="Layer_1" data-name="Layer 1">
      <g>
        <g>
          <path d="M194.05,97.48c-.03-.85-.08-1.7-.13-2.54v-.03c-.6-9.29-2.63-18.2-5.86-26.5h0c-.82-2.13-1.73-4.21-2.71-6.26-2.65.4-5.13,1.39-7.27,2.81-1.02.67-1.97,1.45-2.83,2.31-2.12-1.25-4.37-2.31-6.73-3.13-4.03-1.43-8.36-2.2-12.87-2.2-1.15,0-2.29.05-3.42.15-.13,0-.26.02-.39.03-2.06-2.88-4.38-5.58-6.92-8.03-6.12,2.42-10.62,8.04-11.41,14.81-6.7,4.68-11.84,11.43-14.52,19.33-.17.98-.46,1.91-.83,2.79-2,4.75-6.7,8.07-12.18,8.07-.37,0-.74-.01-1.1-.05.44,6.63,2.39,12.85,5.49,18.33-5.55-1.81-11.47-2.79-17.62-2.79-14.71,0-28.12,5.59-38.21,14.75-6.28-9.39-9.93-20.68-9.93-32.81,0-32.66,26.48-59.13,59.13-59.13,4.96,0,9.77.61,14.37,1.77.68.16,1.36.35,2.04.54.78.15,1.58.22,2.4.22,7.3,0,13.23-5.92,13.23-13.22,0-5.88-3.84-10.87-9.15-12.59h-.01c-.6-.15-1.2-.3-1.81-.44-.01-.01-.03-.01-.05-.01-6.43-1.46-13.12-2.24-19.99-2.24C55.44,11.43,15.44,51.43,15.44,100.77c0,22.35,8.22,42.81,21.79,58.47,16.38,18.9,40.56,30.86,67.54,30.86,16.16,0,31.31-4.29,44.39-11.79,25.02-14.35,42.42-40.48,44.68-70.82.06-.45.1-.9.1-1.33.11-1.79.16-3.59.16-5.4,0-1.1-.02-2.2-.06-3.29Z" style="fill: #fff;"/>
          <path d="M193.95,106.17c-1.84,30.9-19.4,57.58-44.78,72.14-13.08,7.5-28.24,11.79-44.39,11.79-26.98,0-51.16-11.96-67.54-30.86,2.56-11.74,8.74-22.11,17.31-29.9,10.09-9.17,23.5-14.75,38.21-14.75,6.15,0,12.07.98,17.63,2.79.33,0,2.32,3.66,2.65,4.12,1,1.37,2.07,2.68,3.22,3.93,2.3,2.49,4.89,4.71,7.71,6.6,13.11,8.79,31.36,9.58,46.02,4.54,5.06-1.74,9.78-5.19,13.49-9.02,5.62-5.82,9.34-13.35,10.48-21.36Z" style="fill: #fff;"/>
          <path d="M135.78,26.71c0,7.3-5.92,13.22-13.23,13.22-.82,0-1.63-.08-2.4-.22-.67-.19-1.36-.38-2.04-.54-4.6-1.16-9.41-1.77-14.37-1.77-32.66,0-59.13,26.47-59.13,59.13,0,12.13,3.65,23.42,9.93,32.81-8.58,7.79-14.75,18.17-17.31,29.9-13.58-15.67-21.79-36.12-21.79-58.47C15.44,51.43,55.44,11.43,104.77,11.43c6.87,0,13.56.78,19.99,2.24.02,0,.03,0,.04.01.6.14,1.2.29,1.81.44h.01c5.31,1.72,9.15,6.71,9.15,12.59Z" style="fill: #fff;"/>
          <path d="M193.93,94.91c-.85-5.72-2.95-11.04-6.03-15.65,0,0,0-.01,0-.02-.72-1.09-1.5-2.13-2.32-3.13-2.88-3.52-6.38-6.52-10.32-8.84.86-.86,1.81-1.64,2.83-2.31,2.15-1.43,4.62-2.41,7.27-2.81.98,2.04,1.89,4.12,2.71,6.25h0c3.23,8.31,5.25,17.21,5.86,26.51Z" style="fill: #fff;"/>
          <path d="M194.11,100.77c0,1.81-.05,3.61-.16,5.4,0,2.47-1.08,5.35-1.91,7.65-.9,2.47-2.05,4.85-3.43,7.09-2.73,4.43-6.36,8.31-10.61,11.32-11.39,8.08-27.25,8.76-40.48,5.78-11.17-2.52-20.9-10.07-26.72-19.88-.15-.25-.3-.5-.44-.76-3.1-5.48-5.05-11.7-5.49-18.33.36.04.73.05,1.1.05,5.48,0,10.17-3.33,12.18-8.07.37-.87.66-1.81.83-2.79,2.67-7.89,7.82-14.65,14.52-19.33,5.29-3.7,11.56-6.12,18.34-6.78.13-.01.26-.03.39-.03,1.12-.1,2.27-.15,3.42-.15,4.52,0,8.85.77,12.87,2.2,2.36.83,4.61,1.88,6.73,3.13,3.94,2.32,7.44,5.32,10.32,8.84.82,1,1.6,2.04,2.33,3.15,3.07,4.62,5.17,9.93,6.03,15.65v.03c.05.84.1,1.69.13,2.54.04,1.09.06,2.19.06,3.29Z" style="fill: #fff;"/>
          <path d="M151.84,62.12c-6.78.66-13.05,3.08-18.34,6.78.8-6.76,5.3-12.39,11.41-14.81,2.54,2.45,4.86,5.15,6.92,8.03Z" style="fill: #fff;"/>
          <path d="M183.47,127.53c-3.7,3.83-8.43,7.28-13.49,9.02-14.66,5.04-32.91,4.25-46.02-4.54-2.82-1.89-5.41-4.11-7.71-6.6-1.15-1.25-2.23-2.56-3.22-3.93-.33-.46-2.32-4.12-2.65-4.12-4.92-1.6-10.11-2.55-15.51-2.75-1.59,17.29,15,32.63,31.61,39.4,11.25,4.5,12,21,6,31.49-.04.08-.09.16-.13.24,5.9-1.91,11.53-4.41,16.82-7.44,25.39-14.56,42.94-41.24,44.78-72.14-1.15,8.01-4.86,15.55-10.48,21.37Z" style="fill: #fff; mix-blend-mode: overlay;"/>
          <path d="M118.12,39.17c.68.16,1.36.35,2.04.54.78.15,1.58.22,2.4.22,7.3,0,13.23-5.92,13.23-13.22,0-5.88-3.84-10.87-9.15-12.59h-.01c-.6-.15-1.2-.3-1.81-.44-.01-.01-.03-.01-.05-.01-6.43-1.46-13.12-2.24-19.99-2.24-42.01,0-77.24,29-86.78,68.06.89-1.17,1.8-2.33,2.75-3.46,18.92-22.36,47.5-39.03,76.33-38.25,2.19-.25,4.42-.39,6.68-.39,4.96,0,9.77.61,14.37,1.77Z" style="fill: #fff; mix-blend-mode: overlay;"/>
          <path d="M185.58,76.11c-2.88-3.52-6.38-6.52-10.32-8.84-2.12-1.25-4.37-2.31-6.73-3.13-4.03-1.43-8.36-2.2-12.87-2.2-1.15,0-2.29.05-3.42.15-.13,0-.26.02-.39.03-6.78.66-13.05,3.08-18.34,6.78-6.7,4.68-11.84,11.43-14.52,19.33-.17.98-.46,1.91-.83,2.79-2,4.73-6.67,8.05-12.12,8.07,7.14,1.54,15.12-.4,18.2-6.55,9.75-21.75,33.74-24.75,53.99-18,3.75,1.38,7.24,3.34,10.34,5.76-.22-.35-.43-.7-.65-1.04-.73-1.1-1.5-2.15-2.33-3.15Z" style="fill: #fff; mix-blend-mode: overlay;"/>
          <path d="M21.19,132.38c3.75,9.92,9.22,18.99,16.04,26.86,2.4-11.02,8-20.84,15.77-28.44-10.37,2.24-21.12,2.66-31.81,1.58Z" style="fill: #fff; mix-blend-mode: overlay;"/>
        </g>
        <g>
          <path d="M238.37,167.83c0,2.03-.55,2.58-2.58,2.58h-6.82c-2.21,0-2.58-.55-2.58-2.58V43.95c0-2.21.74-2.58,2.58-2.58h9.4v126.46ZM241.88,109.58h29.13c27.65,0,34.29-14.93,34.29-29.68,0-13.46-6.64-28.02-34.29-28.02h-29.13v-10.51h30.05c22.67,0,45.16,8.66,45.16,38.53s-22.49,40.19-45.16,40.19h-30.05v-10.51Z" style="fill: #fff;"/>
          <path d="M334.97,125.06c0,20.28,16.96,37.24,37.97,37.24,9.77,0,21.57-3.32,30.23-9.95,1.47-1.11,2.4-1.29,3.5.18l2.95,3.32c1.11,1.47,1.11,2.58-.18,3.69-8.48,8.48-23.6,12.9-37.05,12.9-27.84,0-49.22-21.94-49.22-48.85s20.09-47.93,45.9-49.03v9.77c-19.54,1.47-34.1,18.62-34.1,37.79v2.95ZM339.02,119.53h66.18c-.37-16.41-12.35-34.1-32.44-35.21v-9.77c27.65.74,44.24,23.78,44.24,50.69,0,1.84-.37,2.58-2.4,2.58h-75.58c-.74-2.21-.74-6.08,0-8.3Z" style="fill: #fff;"/>
          <path d="M431.37,86.17c-2.03,0-2.58-.55-2.58-2.58v-4.42c0-2.03.74-2.58,2.58-2.58h9.77v-19.36c0-1.84.55-2.58,2.58-2.58h6.27c2.03,0,2.58.55,2.58,2.58v19.36h34.84c1.84,0,2.58.55,2.58,2.58v4.42c0,2.03-.55,2.58-2.58,2.58h-56.04ZM452.57,89.85v40.56c0,23.23,6.64,31.52,22.49,31.52,5.53,0,8.48-.37,13.27-2.77,2.03-1.11,2.58-.92,3.13,1.11l1.11,4.79c.37,1.66.18,2.21-1.11,3.13-7.37,4.24-15.12,4.24-17.51,4.24-24.33,0-32.81-15.3-32.81-41.11v-41.48h11.43Z" style="fill: #fff;"/>
          <path d="M569.63,172.81c-37.05-.92-65.07-31.34-65.07-66.92s28.2-65.99,65.07-66.92v19.54c-25.62.74-42.58,24.15-42.58,47.38s16.77,46.82,42.58,47.38v19.54ZM572.76,38.98c17.14.55,35.21,7.93,46.27,18.99,2.03,2.03,1.66,3.32-.37,5.53l-8.48,9.22c-2.03,2.21-3.32,2.58-5.53.37-7.74-8.3-18.99-14.19-31.89-14.56v-19.54ZM572.76,153.27c13.09-.55,24.15-6.27,32.08-14.75,2.21-2.21,3.5-1.66,5.53.37l8.48,9.22c2.03,2.4,2.4,3.5.18,5.71-11.25,11.06-28.94,18.43-46.27,18.99v-19.54Z" style="fill: #fff;"/>
          <path d="M639.12,38.24c0-2.95.92-3.87,3.87-3.87h13.27c3.13,0,3.87.92,3.87,3.87v128.3c0,2.95-.92,3.87-3.87,3.87h-13.27c-2.95,0-3.87-.92-3.87-3.87V38.24Z" style="fill: #fff;"/>
          <path d="M701.24,34.18c7,0,12.9,5.9,12.9,13.09s-5.9,12.72-12.9,12.72-12.9-5.53-12.9-12.72,5.71-13.09,12.9-13.09ZM690.92,80.45c0-2.95.92-3.87,3.87-3.87h13.27c2.95,0,3.87.92,3.87,3.87v86.09c0,2.95-.92,3.87-3.87,3.87h-13.27c-2.95,0-3.87-.92-3.87-3.87v-86.09Z" style="fill: #fff;"/>
          <path d="M763,166.54c0,2.95-.92,3.87-3.87,3.87h-13.27c-2.95,0-3.87-.92-3.87-3.87v-86.09c0-2.95.92-3.87,3.87-3.87h6.64c3.5,0,5.71.55,7.19,2.21l3.32,5.16v82.59ZM766.31,84.32c6.27-6.64,14.01-9.77,22.67-9.77,20.28,0,35.76,10.88,35.76,42.58v49.4c0,2.95-.92,3.87-3.87,3.87h-13.27c-2.95,0-3.87-.92-3.87-3.87v-44.79c0-19.54-7.19-28.39-20.09-28.39-6.82,0-13.64,3.5-17.33,11.06v-20.09Z" style="fill: #fff;"/>
          <path d="M861.61,34.18c7,0,12.9,5.9,12.9,13.09s-5.9,12.72-12.9,12.72-12.9-5.53-12.9-12.72,5.71-13.09,12.9-13.09ZM851.29,80.45c0-2.95.92-3.87,3.87-3.87h13.27c2.95,0,3.87.92,3.87,3.87v86.09c0,2.95-.92,3.87-3.87,3.87h-13.27c-2.95,0-3.87-.92-3.87-3.87v-86.09Z" style="fill: #fff;"/>
          <path d="M941.43,93.36c-14.93.92-26.36,14.01-26.36,30.23s11.43,29.31,26.36,30.05v18.8c-27.28-.92-47.19-23.04-47.19-48.85s20.28-48.11,47.19-49.03v18.8ZM944.56,74.55c12.17.37,23.78,5.35,32.44,13.83,1.66,1.66,1.29,2.58-.55,4.79l-6.82,7.37c-2.03,2.21-3.32,2.77-5.53.74-5.53-5.35-13.27-7.74-19.54-7.93v-18.8ZM944.56,153.64c7.74-.37,14.56-3.13,19.54-7.93,2.21-2.03,3.5-1.47,5.53.74l6.82,7.37c1.84,2.21,2.21,3.13.55,4.79-8.66,8.48-20.09,13.46-32.44,13.83v-18.8Z" style="fill: #fff;"/>
        </g>
      </g>
    </g>
  </g>
</svg>